<?xml version="1.0" encoding="utf-8"?>
<!-- Generator: Adobe Illustrator 24.1.1, SVG Export Plug-In . SVG Version: 6.00 Build 0)  -->
<svg version="1.1" id="Layer_1" xmlns="http://www.w3.org/2000/svg" xmlns:xlink="http://www.w3.org/1999/xlink" x="0px" y="0px"
	 viewBox="0 0 512 512" style="enable-background:new 0 0 512 512;" xml:space="preserve">
<g>
	<path fill="#fbf7f5" d="M57.7,313.9c0-23.5,6.4-50.6,19.3-81.1c12.8-30.5,29.4-60.2,49.8-88.6c41.8-55.1,78.1-96.9,108.7-125L255.5,0
		c6.7,7,14.2,13.4,22.2,19.3c11,11.3,27.8,29.7,50.3,55.9c22.5,26.2,42,49.5,58.1,70.9c19,27,35.3,56.2,48.4,87
		c13.1,30.8,19.8,57.8,19.8,81.1c0,26.8-5.1,52.2-15.5,76.6c-10.4,24.3-24.4,45.5-42,63.2c-17.7,17.7-38.8,31.8-63.4,42.3
		c-24.6,10.4-50.6,15.8-77.9,15.8c-26.8,0-52.2-5.1-76.5-15.3c-24.4-10.2-45.5-23.8-63.2-41.5c-17.7-17.4-31.8-38.5-42.3-62.9
		C63,368,57.7,341.8,57.7,313.9z M118.2,235.5c0,22.2,4.5,39.9,13.9,53.3c9.4,13.1,23.5,19.8,42.6,19.8c19.3,0,33.5-6.7,43.1-19.8
		c9.4-13.1,14.2-30.8,14.5-53.3c-0.3-22.5-5.1-40.1-14.5-53.5c-9.4-13.1-23.8-19.8-43.1-19.8c-19,0-33.2,6.7-42.6,19.8
		C122.7,195.4,118.2,213,118.2,235.5z M160.2,235.5c0-4,0-7.2,0-9.4c0-2.1,0.3-5.1,0.5-8.8c0.3-3.8,0.5-6.7,1.3-8.6l2.4-6.4l4-4.8
		l6.2-1.6c3.8,0,6.7,1.1,8.8,3.2c2.1,2.1,3.8,5.6,4.5,10.2c0.8,4.8,1.3,8.6,1.6,12c0.3,3.5,0.3,8,0.3,13.9c0,6.2,0,10.7-0.3,13.9
		c-0.3,3.2-0.8,7.2-1.6,12c-0.8,4.6-2.4,8-4.5,10.2c-2.1,2.1-5.1,3.2-8.8,3.2l-6.2-1.6l-4-4.8l-2.4-6.4c-0.5-2.1-1.1-5.1-1.3-8.6
		c-0.3-3.8-0.5-6.7-0.5-8.6C160.2,242.7,160.2,239.5,160.2,235.5z M176,442.9h35.3l133.5-287.4h-36.1L176,442.9z M291.1,362.9
		c0.3,22.5,5.3,40.1,14.7,53.5c9.4,13.1,23.8,19.8,42.8,19.8c19.3,0,33.5-6.7,42.8-19.8c9.4-13.1,13.9-31.1,14.2-53.5
		c-0.3-22.5-4.8-40.1-14.2-53.3c-9.4-13.1-23.5-19.8-42.8-19.8c-19,0-33.5,6.7-42.8,19.8C296.1,322.8,291.3,340.4,291.1,362.9z
		 M333.1,362.9c0-6.2,0-10.7,0.3-13.9c0.3-3.2,0.8-7.2,1.6-12c0.8-4.8,2.4-8,4.5-10.2s5.1-3.2,8.8-3.2l6.4,1.6l4.3,5.1
		c1.1,2.4,1.9,4.5,2.7,6.4c0.8,1.9,1.1,4.8,1.3,8.6l0.3,8.6v9.1c0,4.3,0,7.5,0,9.4l-0.3,8.6l-1.3,8.6l-2.7,6.4l-4.3,5.1l-6.4,1.6
		c-3.8,0-6.7-1.1-8.8-3.2s-3.8-5.6-4.5-10.2c-0.8-4.8-1.3-8.8-1.6-12C333.1,373.9,333.1,369.1,333.1,362.9z"/>
</g>
</svg>
